<svg width="28" height="28" viewBox="0 0 28 28" fill="none" xmlns="http://www.w3.org/2000/svg">
<g filter="url(#filter0_d_106_425)">
<path d="M14 0C12.0222 0 10.0888 0.58649 8.4443 1.6853C6.79981 2.78412 5.51809 4.3459 4.76121 6.17316C4.00433 8.00043 3.8063 10.0111 4.19215 11.9509C4.578 13.8907 5.53041 15.6725 6.92894 17.0711C8.32746 18.4696 10.1093 19.422 12.0491 19.8078C13.9889 20.1937 15.9996 19.9957 17.8268 19.2388C19.6541 18.4819 21.2159 17.2002 22.3147 15.5557C23.4135 13.9112 24 11.9778 24 10C24 7.34783 22.9464 4.8043 21.0711 2.92893C19.1957 1.05357 16.6522 0 14 0ZM14 3C14.5933 3 15.1734 3.17595 15.6667 3.50559C16.1601 3.83523 16.5446 4.30377 16.7716 4.85195C16.9987 5.40013 17.0581 6.00333 16.9424 6.58527C16.8266 7.16721 16.5409 7.70176 16.1213 8.12132C15.7018 8.54088 15.1672 8.8266 14.5853 8.94235C14.0033 9.05811 13.4001 8.9987 12.852 8.77164C12.3038 8.54457 11.8352 8.16006 11.5056 7.66671C11.176 7.17336 11 6.59334 11 6C11 5.20435 11.3161 4.44129 11.8787 3.87868C12.4413 3.31607 13.2044 3 14 3ZM14 17.2C12.8119 17.2 11.6422 16.906 10.5953 16.3441C9.54838 15.7823 8.65678 14.9701 8 13.98C8.03 11.99 12 10.9 14 10.9C16 10.9 19.97 11.99 20 13.98C19.3432 14.9701 18.4516 15.7823 17.4047 16.3441C16.3578 16.906 15.1881 17.2 14 17.2Z" fill="#BFBFBF"/>
</g>
<defs>
<filter id="filter0_d_106_425" x="0" y="0" width="28" height="28" filterUnits="userSpaceOnUse" color-interpolation-filters="sRGB">
<feFlood flood-opacity="0" result="BackgroundImageFix"/>
<feColorMatrix in="SourceAlpha" type="matrix" values="0 0 0 0 0 0 0 0 0 0 0 0 0 0 0 0 0 0 127 0" result="hardAlpha"/>
<feOffset dy="4"/>
<feGaussianBlur stdDeviation="2"/>
<feComposite in2="hardAlpha" operator="out"/>
<feColorMatrix type="matrix" values="0 0 0 0 0 0 0 0 0 0 0 0 0 0 0 0 0 0 0.25 0"/>
<feBlend mode="normal" in2="BackgroundImageFix" result="effect1_dropShadow_106_425"/>
<feBlend mode="normal" in="SourceGraphic" in2="effect1_dropShadow_106_425" result="shape"/>
</filter>
</defs>
</svg>
