<svg width="28" height="29" viewBox="0 0 28 29" fill="none" xmlns="http://www.w3.org/2000/svg">
<path fill-rule="evenodd" clip-rule="evenodd" d="M5.94495 14.205C5.94596 13.3353 6.08607 12.4714 6.35995 11.646L1.71095 8.09601C0.779594 9.99781 0.29541 12.0874 0.29541 14.205C0.29541 16.3226 0.779594 18.4122 1.71095 20.314L6.35795 16.757C6.08679 15.9342 5.94839 15.0734 5.94795 14.207" fill="#FBBC05"/>
<path fill-rule="evenodd" clip-rule="evenodd" d="M14.109 6.05401C15.9639 6.05159 17.7619 6.69429 19.195 7.87201L23.214 3.85901C21.6243 2.45846 19.7336 1.44256 17.6883 0.889972C15.643 0.337385 13.4979 0.262938 11.4192 0.672395C9.3405 1.08185 7.38391 1.96423 5.70094 3.2512C4.01798 4.53817 2.65378 6.19521 1.71399 8.09401L6.36299 11.644C6.90051 10.0143 7.93927 8.59612 9.33092 7.59203C10.7226 6.58794 12.3959 6.04929 14.112 6.05301" fill="#EA4335"/>
<path fill-rule="evenodd" clip-rule="evenodd" d="M14.1091 22.357C12.393 22.3607 10.7196 21.8221 9.32799 20.818C7.93634 19.8139 6.89758 18.3957 6.36006 16.766L1.71106 20.316C2.85108 22.6295 4.61779 24.5764 6.81003 25.9351C9.00227 27.2937 11.532 28.0095 14.1111 28.001C17.4377 28.0333 20.6532 26.805 23.1111 24.563L18.6981 21.151C17.3132 21.9779 15.7226 22.396 14.1101 22.357" fill="#34A853"/>
<path fill-rule="evenodd" clip-rule="evenodd" d="M27.296 14.205C27.2844 13.36 27.1791 12.5188 26.982 11.697H14.109V17.027H21.519C21.3597 17.8721 21.0266 18.675 20.5408 19.3847C20.055 20.0944 19.4272 20.6955 18.697 21.15L23.11 24.562C24.4951 23.2258 25.5836 21.6132 26.3048 19.8288C27.026 18.0445 27.3637 16.1284 27.296 14.205Z" fill="#4285F4"/>
</svg>
