<svg width="25" height="23" viewBox="0 0 25 23" fill="none" xmlns="http://www.w3.org/2000/svg">
<path d="M22.3869 13.0445L24.3885 4.03968C24.4238 3.8893 24.4249 3.7329 24.3918 3.58202C24.3587 3.43113 24.2921 3.2896 24.1971 3.16784C24.102 3.04608 23.9808 2.94719 23.8425 2.87846C23.7041 2.80973 23.5521 2.77291 23.3977 2.7707H6.77348L6.38336 0.83121C6.33919 0.598537 6.21556 0.388434 6.03363 0.236819C5.85169 0.0852046 5.62274 0.00149445 5.38591 0L1.0481 0C0.913091 0.00144694 0.779687 0.0294931 0.65552 0.0825349C0.531354 0.135577 0.41886 0.212573 0.324473 0.309123C0.230085 0.405672 0.155655 0.519879 0.105437 0.645215C0.0552203 0.77055 0.0302014 0.904555 0.0318113 1.03957V1.73224C0.030348 1.86716 0.0554753 2.00105 0.105758 2.12625C0.156041 2.25146 0.230495 2.36554 0.324868 2.46197C0.419241 2.5584 0.531685 2.6353 0.655779 2.68827C0.779872 2.74124 0.913185 2.76925 1.0481 2.7707H4.0061L6.97962 17.6383C6.61518 17.8554 6.31369 18.1638 6.10494 18.5331C5.89619 18.9024 5.7874 19.3198 5.78933 19.744C5.78933 20.0553 5.85064 20.3636 5.96978 20.6512C6.08891 20.9388 6.26353 21.2002 6.48366 21.4203C6.70379 21.6404 6.96513 21.815 7.25274 21.9342C7.54036 22.0533 7.84862 22.1146 8.15994 22.1146C8.47125 22.1146 8.77952 22.0533 9.06713 21.9342C9.35475 21.815 9.61608 21.6404 9.83621 21.4203C10.0563 21.2002 10.231 20.9388 10.3501 20.6512C10.4692 20.3636 10.5305 20.0553 10.5305 19.744C10.5321 19.4222 10.47 19.1032 10.3476 18.8055C10.2253 18.5078 10.0453 18.2373 9.81793 18.0096H18.6919C18.4652 18.2371 18.2856 18.5071 18.1633 18.8042C18.041 19.1012 17.9785 19.4195 17.9793 19.7407C17.9793 20.052 18.0406 20.3603 18.1598 20.6479C18.2789 20.9355 18.4535 21.1968 18.6736 21.417C18.8938 21.6371 19.1551 21.8117 19.4427 21.9308C19.7303 22.05 20.0386 22.1113 20.3499 22.1113C20.6612 22.1113 20.9695 22.05 21.2571 21.9308C21.5447 21.8117 21.8061 21.6371 22.0262 21.417C22.2463 21.1968 22.4209 20.9355 22.5401 20.6479C22.6592 20.3603 22.7205 20.052 22.7205 19.7407C22.7228 19.2886 22.599 18.8449 22.3629 18.4593C22.1267 18.0738 21.7877 17.7618 21.3839 17.5585L21.6178 16.5078C21.6531 16.3574 21.6542 16.2011 21.6211 16.0502C21.588 15.8993 21.5214 15.7578 21.4264 15.636C21.3313 15.5142 21.2101 15.4153 21.0718 15.3466C20.9334 15.2779 20.7814 15.2411 20.627 15.2389H9.26489L8.98782 13.8535H21.4006C21.6324 13.8507 21.8564 13.7691 22.0357 13.6221C22.215 13.475 22.3389 13.2713 22.3869 13.0445Z" fill="white"/>
</svg>
