<svg width="450" height="530" viewBox="0 0 450 530" fill="none" xmlns="http://www.w3.org/2000/svg">
<g clip-path="url(#clip0_106_394)">
<path d="M-121.331 97.6115L-162.225 27.2852C-165.91 20.9941 -168.311 14.0356 -169.292 6.81139C-170.272 -0.412861 -169.812 -7.75977 -167.938 -14.8052C-166.064 -21.8507 -162.813 -28.4551 -158.372 -34.2373C-153.932 -40.0195 -148.39 -44.8649 -142.067 -48.4938L-71.7357 -88.8081C-58.8926 -96.1167 -43.6827 -98.0572 -29.416 -94.2072C-15.1492 -90.3572 -2.98042 -81.0283 4.44226 -68.2508L45.3365 2.07549C49.021 8.36694 51.4228 15.3259 52.4031 22.5507C53.3835 29.7754 52.923 37.1228 51.0483 44.1686C49.1736 51.2144 45.9218 57.8191 41.4807 63.6013C37.0395 69.3835 31.497 74.2287 25.1731 77.8572L-45.1532 118.169C-57.9963 125.477 -73.2062 127.418 -87.473 123.568C-101.74 119.718 -113.909 110.389 -121.331 97.6115V97.6115Z" fill="#E7F0F5"/>
<path opacity="0.2" d="M-201.072 3.06846L-201.074 3.07248L-260.149 106.129L-261.45 105.383L-260.149 106.13C-269.176 121.859 -271.625 140.518 -266.963 158.044C-262.301 175.57 -250.905 190.545 -235.256 199.709C-235.255 199.71 -235.255 199.71 -235.254 199.711L-132.937 259.208C-132.937 259.208 -132.937 259.208 -132.937 259.209C-125.202 263.701 -116.655 266.616 -107.788 267.787C-98.9201 268.958 -89.9085 268.361 -81.273 266.031C-72.6375 263.7 -64.5492 259.682 -57.4748 254.209C-50.4005 248.736 -44.4804 241.915 -40.0562 234.142L-40.0539 234.138L19.0214 131.08L19.0218 131.08C28.0489 115.35 30.4976 96.6913 25.8348 79.165C21.1725 61.6401 9.77732 46.666 -5.87069 37.5013C-5.87201 37.5006 -5.8733 37.4998 -5.87462 37.499M-201.072 3.06846L-5.11664 36.2046L-5.87462 37.499M-201.072 3.06846C-196.647 -4.70517 -190.727 -11.5255 -183.653 -16.9988C-176.579 -22.4721 -168.49 -26.49 -159.855 -28.8206C-151.219 -31.1511 -142.208 -31.7481 -133.34 -30.5771C-124.473 -29.4061 -115.926 -26.4905 -108.191 -21.9984L-201.072 3.06846ZM-5.87462 37.499L-108.191 -21.998L-5.87462 37.499Z" stroke="#FFA81D" stroke-width="3"/>
<path opacity="0.2" d="M461.669 545.612L420.775 475.286C417.091 468.995 414.689 462.036 413.708 454.812C412.728 447.588 413.188 440.241 415.062 433.195C416.937 426.15 420.188 419.545 424.628 413.763C429.069 407.981 434.61 403.136 440.933 399.507L511.265 359.192C524.108 351.884 539.318 349.943 553.584 353.793C567.851 357.643 580.02 366.972 587.443 379.75L628.337 450.076C632.021 456.367 634.423 463.326 635.403 470.551C636.384 477.776 635.923 485.123 634.049 492.169C632.174 499.215 628.922 505.82 624.481 511.602C620.04 517.384 614.497 522.229 608.173 525.858L537.847 566.169C525.004 573.478 509.794 575.418 495.527 571.568C481.261 567.718 469.092 558.39 461.669 545.612V545.612Z" fill="#FFA81D"/>
<path opacity="0.2" d="M475.919 299.768L475.922 299.764C479.199 294.006 483.584 288.954 488.823 284.9C494.063 280.846 500.054 277.87 506.45 276.144C512.846 274.418 519.521 273.976 526.089 274.843C532.657 275.711 538.987 277.87 544.716 281.197C544.716 281.197 544.716 281.197 544.717 281.198L621.073 325.599C632.666 332.388 641.109 343.481 644.563 356.464C648.017 369.447 646.203 383.268 639.516 394.92L639.515 394.921L595.428 471.832L595.425 471.836C592.149 477.594 587.764 482.646 582.524 486.7C577.284 490.754 571.293 493.73 564.897 495.456C558.501 497.182 551.826 497.624 545.258 496.757C538.691 495.89 532.36 493.73 526.631 490.403C526.631 490.403 526.631 490.403 526.631 490.403L450.273 446C450.272 446 450.272 446 450.271 445.999C438.679 439.21 430.238 428.118 426.784 415.136C423.331 402.153 425.145 388.331 431.832 376.679L430.531 375.933L431.832 376.679L475.919 299.768Z" stroke="#178FAC" stroke-width="3"/>
</g>
<defs>
<clipPath id="clip0_106_394">
<rect width="450" height="530" rx="10" fill="white"/>
</clipPath>
</defs>
</svg>
