<svg width="20" height="20" viewBox="0 0 20 20" fill="none" xmlns="http://www.w3.org/2000/svg">
<path d="M18.3375 12.2275L19.9789 4.55384C20.0974 3.99979 19.7011 3.4722 19.1663 3.4722H5.52806L5.20979 1.81905C5.13049 1.407 4.78924 1.11108 4.39337 1.11108H0.833334C0.37309 1.11108 0 1.50749 0 1.9965V2.58678C0 3.07579 0.37309 3.4722 0.833334 3.4722H3.25983L5.69899 16.1423C5.11545 16.4989 4.72222 17.1675 4.72222 17.934C4.72222 19.075 5.59278 20 6.66667 20C7.74056 20 8.61111 19.075 8.61111 17.934C8.61111 17.3558 8.38726 16.8333 8.02695 16.4583H15.3064C14.9461 16.8333 14.7222 17.3558 14.7222 17.934C14.7222 19.075 15.5928 20 16.6667 20C17.7406 20 18.6111 19.075 18.6111 17.934C18.6111 17.116 18.1636 16.4092 17.5146 16.0744L17.7062 15.1788C17.8247 14.6248 17.4283 14.0972 16.8936 14.0972H7.57351L7.34625 12.9166H17.5249C17.914 12.9166 18.2513 12.6306 18.3375 12.2275Z" fill="#D9D9D9"/>
</svg>
