<svg width="28" height="28" viewBox="0 0 28 28" fill="none" xmlns="http://www.w3.org/2000/svg">
<path d="M28 26.25C27.9997 26.714 27.8153 27.159 27.4871 27.4871C27.159 27.8153 26.714 27.9997 26.25 28H1.75C1.28595 27.9997 0.840987 27.8153 0.512856 27.4871C0.184725 27.159 0.000264943 26.714 0 26.25L0 1.75C0.000264943 1.28595 0.184725 0.840987 0.512856 0.512856C0.840987 0.184725 1.28595 0.000264943 1.75 0L26.25 0C26.714 0.000264943 27.159 0.184725 27.4871 0.512856C27.8153 0.840987 27.9997 1.28595 28 1.75V26.25Z" fill="#3B5998"/>
<path d="M19.249 28V17.5H22.749L23.624 13.123H19.249V11.365C19.1989 11.0089 19.2322 10.6461 19.3462 10.3051C19.4602 9.96405 19.6519 9.65418 19.9061 9.39988C20.1603 9.14557 20.4701 8.95377 20.8111 8.83961C21.1521 8.72544 21.5149 8.69203 21.871 8.74199H23.622V4.36499H20.122C16.908 4.36499 14.871 6.88699 14.871 10.493V13.119H11.371V17.496H14.871V27.996L19.249 28Z" fill="white"/>
</svg>
