<svg width="28" height="28" viewBox="0 0 28 28" fill="none" xmlns="http://www.w3.org/2000/svg">
<path d="M25 0H3C2.20435 0 1.44129 0.316071 0.87868 0.87868C0.31607 1.44129 0 2.20435 0 3L0 25C0 25.7956 0.31607 26.5587 0.87868 27.1213C1.44129 27.6839 2.20435 28 3 28H25C25.7956 28 26.5587 27.6839 27.1213 27.1213C27.6839 26.5587 28 25.7956 28 25V3C28 2.20435 27.6839 1.44129 27.1213 0.87868C26.5587 0.316071 25.7956 0 25 0ZM17.331 23.981C16.806 24.075 16.612 23.75 16.612 23.481C16.612 23.143 16.625 21.419 16.625 20.025C16.6535 19.6731 16.6051 19.3192 16.4832 18.9878C16.3613 18.6564 16.1688 18.3556 15.919 18.106C18.232 17.85 20.669 17.531 20.669 13.537C20.6755 13.078 20.5834 12.6229 20.399 12.2025C20.2146 11.7821 19.9421 11.4061 19.6 11.1C19.915 10.182 19.8772 9.17967 19.494 8.288C18.625 8.019 16.638 9.407 16.638 9.407C14.9361 8.94033 13.1399 8.94033 11.438 9.407C11.438 9.407 9.45 8.019 8.581 8.287C8.19468 9.17831 8.15685 10.1821 8.475 11.1C8.14623 11.4118 7.88885 11.791 7.72055 12.2117C7.55225 12.6324 7.47701 13.0845 7.5 13.537C7.5 17.512 9.831 17.85 12.144 18.106C11.7666 18.4787 11.532 18.972 11.481 19.5C11.2266 19.645 10.9458 19.7376 10.6551 19.7724C10.3643 19.8071 10.0696 19.7833 9.78819 19.7023C9.50681 19.6213 9.2445 19.4848 9.01673 19.3008C8.78896 19.1168 8.60034 18.8891 8.462 18.631C8.29566 18.3429 8.06549 18.0967 7.78916 17.9114C7.51284 17.726 7.19772 17.6065 6.868 17.562C5.856 17.549 6.799 18.2 6.799 18.2C7.474 18.513 7.949 19.713 7.949 19.713C8.555 21.569 11.455 20.944 11.455 20.944C11.455 21.813 11.467 23.225 11.467 23.481C11.467 23.737 11.28 24.075 10.748 23.981C8.6887 23.2764 6.90332 21.9417 5.64482 20.1659C4.38632 18.3902 3.71851 16.2634 3.736 14.087C3.71214 12.7521 3.95804 11.4262 4.45896 10.1886C4.95987 8.95105 5.70549 7.82736 6.65113 6.8849C7.59677 5.94243 8.72296 5.20059 9.9622 4.70384C11.2014 4.20709 12.5282 3.96565 13.863 3.994C15.2114 3.96113 16.5528 4.1976 17.8086 4.68957C19.0645 5.18153 20.2096 5.9191 21.1769 6.8591C22.1441 7.79909 22.9142 8.92261 23.4418 10.1639C23.9695 11.4052 24.2443 12.7392 24.25 14.088C24.2883 16.2562 23.6397 18.3809 22.3968 20.1579C21.154 21.935 19.3808 23.2732 17.331 23.981ZM11.2 20.163C11.081 20.188 10.969 20.138 10.956 20.057C10.943 19.976 11.025 19.882 11.144 19.857C11.263 19.832 11.375 19.894 11.388 19.976C11.401 20.058 11.325 20.137 11.2 20.163ZM10.606 20.107C10.606 20.188 10.512 20.257 10.387 20.257C10.262 20.257 10.156 20.201 10.156 20.107C10.156 20.013 10.25 19.957 10.375 19.957C10.5 19.957 10.606 20.012 10.606 20.106V20.107ZM9.75 20.038C9.725 20.119 9.6 20.157 9.494 20.119C9.388 20.081 9.294 20 9.319 19.919C9.344 19.838 9.469 19.8 9.575 19.825C9.7 19.862 9.781 19.956 9.75 20.038ZM8.981 19.7C8.925 19.769 8.806 19.756 8.712 19.663C8.618 19.57 8.593 19.463 8.656 19.407C8.719 19.351 8.831 19.351 8.925 19.445C9.019 19.539 9.037 19.65 8.981 19.7ZM8.412 19.131C8.356 19.168 8.249 19.131 8.181 19.037C8.113 18.943 8.112 18.837 8.181 18.793C8.25 18.749 8.356 18.78 8.412 18.874C8.44547 18.9082 8.46421 18.9541 8.46421 19.002C8.46421 19.0499 8.44547 19.0958 8.412 19.13V19.131ZM8.006 18.525C7.95 18.581 7.856 18.55 7.787 18.487C7.718 18.406 7.706 18.312 7.762 18.268C7.818 18.224 7.912 18.243 7.981 18.306C8.05 18.387 8.062 18.481 8.006 18.525ZM7.587 18.062C7.57781 18.076 7.56576 18.0878 7.55164 18.0968C7.53753 18.1057 7.52168 18.1116 7.50513 18.1139C7.48859 18.1163 7.47173 18.1151 7.45567 18.1105C7.43962 18.1058 7.42473 18.0978 7.412 18.087C7.331 18.049 7.293 17.981 7.318 17.924C7.34051 17.9014 7.36976 17.8868 7.40132 17.8823C7.43289 17.8777 7.46507 17.8836 7.493 17.899C7.575 17.944 7.612 18.012 7.587 18.062Z" fill="black"/>
</svg>
