<svg width="100" height="15" viewBox="0 0 100 15" fill="none" xmlns="http://www.w3.org/2000/svg">
<path d="M90.9477 0.0514024C88.3267 0.704215 86.9157 1.82862 86.2017 3.86515C85.7664 5.74194 85.6615 7.68038 85.8917 9.59327C86.4037 13.1177 88.8387 15 92.8867 15C96.9347 15 99.3697 13.1157 99.8817 9.59327C100.112 7.68038 100.007 5.74193 99.5717 3.86515C99.2757 3.03413 98.7911 2.28325 98.156 1.67166C97.5209 1.06007 96.7526 0.604478 95.9117 0.340764C94.277 0.0259623 92.6079 -0.0713334 90.9477 0.0514024ZM94.8097 2.75477C95.5732 3.06743 96.189 3.65963 96.5317 4.41083C96.7974 5.49885 96.8651 6.62589 96.7317 7.73797C96.6847 10.3512 96.6847 10.3963 96.2507 11.004C95.9531 11.3937 95.5847 11.7236 95.1647 11.9762C94.5907 12.2956 94.3267 12.3407 92.8647 12.3407C91.3137 12.3407 91.1897 12.3107 90.4767 11.8851C90.0139 11.6129 89.6291 11.2256 89.3597 10.7607C89.0337 10.1379 89.0027 9.92469 89.0027 7.49467C89.0027 5.09168 89.0337 4.83636 89.3597 4.21259C89.5979 3.78666 89.9247 3.41699 90.3181 3.12866C90.7115 2.84034 91.1622 2.64009 91.6397 2.5415C92.6989 2.38572 93.7791 2.45879 94.8077 2.75577L94.8097 2.75477Z" fill="black"/>
<path d="M22.1006 0.223399C21.3566 0.363573 21.0006 1.66719 21.5116 2.3971C21.7523 2.62832 22.0545 2.78505 22.3819 2.84846C22.7094 2.91187 23.0482 2.87926 23.3576 2.75455C23.6339 2.69839 23.8781 2.53815 24.0398 2.30693C24.2015 2.07571 24.2684 1.79115 24.2266 1.512C24.2689 1.24589 24.2115 0.973534 24.0655 0.747175C23.9196 0.520815 23.6952 0.356399 23.4356 0.285472C23.0104 0.114427 22.5398 0.0925506 22.1006 0.223399Z" fill="#178FAC"/>
<path d="M36.834 0.388673C35.9233 0.602546 35.0971 1.08364 34.461 1.77039C33.886 2.46777 33.5252 3.31702 33.422 4.21543C33.502 5.19701 33.9377 6.11543 34.647 6.79765C35.36 7.49852 35.965 7.78488 38.647 8.7721C40.291 9.37986 40.8651 9.88048 40.8651 10.7466C40.8651 12.4487 38.165 13.1155 35.592 12.0372C33.715 11.2622 33.11 11.3843 33.11 12.5077C33.11 13.4189 33.358 13.7683 34.273 14.1788C37.127 15.4544 41.128 15.0599 42.896 13.3288C43.473 12.7778 43.865 12.061 44.0178 11.2775C44.1706 10.4939 44.0767 9.68218 43.749 8.95433C43.16 7.84595 42.291 7.28325 39.655 6.32706C37.701 5.61317 37.049 5.24872 36.739 4.64096C35.808 2.87877 38.7091 1.72534 41.2831 2.84873C42.1671 3.22821 42.772 3.27426 43.129 2.98591C43.517 2.66651 43.3461 1.3759 42.8651 1.01145C41.8281 0.221467 38.431 -0.12797 36.834 0.388673Z" fill="black"/>
<path d="M53.3838 0.342691L53.0268 0.58599V14.6515L53.4148 14.8187C54.0934 15.057 54.8337 15.0517 55.5088 14.8037L55.8968 14.6034L55.9748 11.3223L56.0528 8.02625L58.7668 11.3534C61.7598 15.029 61.8378 15.09 63.3888 14.9689C64.2888 14.8928 64.6888 14.6044 64.5518 14.1178C64.5208 13.9807 63.2338 12.3556 61.6978 10.5133C60.1778 8.67505 58.9218 7.10911 58.9218 7.03502C59.6921 6.11677 60.5099 5.23948 61.3718 4.40675C63.7288 1.99174 64.6598 0.94344 64.6598 0.70214C64.6126 0.564089 64.5265 0.442697 64.4118 0.352698C63.5199 0.0470176 62.5553 0.0256827 61.6508 0.291625C60.5948 1.2075 59.6049 2.19721 58.6888 3.25331C57.2778 4.7722 56.0518 6.03277 55.9748 6.03277C55.8057 5.13685 55.7536 4.22274 55.8198 3.31338C55.8198 0.214527 55.8358 0.244566 54.5328 0.153453C54.1396 0.072925 53.7305 0.140298 53.3838 0.342691Z" fill="black"/>
<path d="M74.1145 0.432799L73.7145 0.733176V7.62876C73.7145 13.0815 73.7616 14.5373 73.9146 14.6615C74.2218 14.8267 74.5612 14.9231 74.9092 14.944C75.2573 14.9649 75.6058 14.9099 75.9305 14.7827L76.5045 14.5544V0.737179L76.1046 0.436802C75.8158 0.227553 75.468 0.115695 75.1115 0.117404C74.7542 0.113607 74.4049 0.2241 74.1145 0.432799Z" fill="black"/>
<path d="M0.297962 0.419512C0.0979622 0.540663 0.0649629 1.51287 0.0189629 7.34313C-0.0280371 15.253 -0.105038 14.8435 1.36796 14.8435C2.76796 14.8435 2.77896 14.7984 2.77896 11.6705C2.73787 10.6959 2.78977 9.7196 2.93396 8.75488C3.08896 8.48154 3.29096 8.46653 5.70996 8.46653C7.94296 8.46653 8.36196 8.49656 8.53296 8.72484C8.70396 8.90707 8.76596 9.66601 8.79696 11.7156C8.84396 14.8735 8.84396 14.8435 10.162 14.8435C11.542 14.8435 11.462 15.314 11.462 7.55539C11.462 1.57295 11.431 0.722893 11.214 0.510629C10.8685 0.357509 10.4962 0.274668 10.1185 0.266933C9.7408 0.259198 9.36535 0.326718 9.01397 0.465567C8.84424 1.33017 8.77145 2.21105 8.79696 3.09184C8.76596 4.88306 8.68796 5.59495 8.53296 5.77918C8.36196 6.00646 7.94396 6.0375 5.70996 6.0375C3.29096 6.0375 3.08896 6.02248 2.93396 5.74914C2.79243 4.87093 2.7405 3.98057 2.77896 3.09184C2.77896 0.313379 2.76297 0.267322 1.41397 0.267322C1.03599 0.253326 0.658433 0.304813 0.297962 0.419512Z" fill="#178FAC"/>
<path d="M21.5288 3.91322C21.3118 4.11347 21.2808 4.82936 21.2808 9.33296C21.2808 15.2804 21.1718 14.8608 22.7808 14.8608C24.2808 14.8608 24.2229 15.1252 24.2229 9.25386C24.2229 3.35252 24.3008 3.66391 22.7028 3.66391C22.0558 3.66491 21.6988 3.74201 21.5288 3.91322Z" fill="#178FAC"/>
</svg>
