<svg width="28" height="28" viewBox="0 0 28 28" fill="none" xmlns="http://www.w3.org/2000/svg">
<path d="M24.172 28L3.828 28C2.81275 28 1.83908 27.5967 1.12119 26.8788C0.403305 26.1609 0 25.1872 0 24.172L0 3.828C0 2.81275 0.403305 1.83908 1.12119 1.12119C1.83908 0.403305 2.81275 0 3.828 0L24.172 0C25.1872 0 26.1609 0.403305 26.8788 1.12119C27.5967 1.83908 28 2.81275 28 3.828L28 24.172C28 25.1872 27.5967 26.1609 26.8788 26.8788C26.1609 27.5967 25.1872 28 24.172 28V28Z" fill="#017BBE"/>
<path d="M8.42001 10.389H4.08801V23.805H8.42001V10.389Z" fill="white"/>
<path d="M6.282 8.457C6.70255 8.45285 7.11248 8.32437 7.46014 8.0877C7.80781 7.85104 8.07767 7.51679 8.23575 7.12706C8.39382 6.73732 8.43305 6.30951 8.34846 5.89753C8.26388 5.48555 8.05928 5.10781 7.76044 4.81188C7.46159 4.51596 7.08186 4.31508 6.66907 4.23454C6.25628 4.154 5.82889 4.1974 5.44072 4.35929C5.05255 4.52118 4.72097 4.79431 4.48773 5.14428C4.25449 5.49425 4.13003 5.90543 4.13 6.326C4.13292 6.89392 4.36123 7.43743 4.76479 7.83705C5.16834 8.23666 5.71407 8.45965 6.282 8.457Z" fill="white"/>
<path d="M23.9071 16.392C23.9757 15.5459 23.8741 14.6945 23.6083 13.8883C23.3424 13.0821 22.9176 12.3373 22.3591 11.698C21.4761 10.825 21.029 10.414 18.879 10.414C18.1092 10.4435 17.3547 10.6379 16.6665 10.9842C15.9783 11.3304 15.3725 11.8204 14.8901 12.421V10.456H10.4771V23.74H14.8901V16.167C14.8599 15.8767 14.8925 15.5832 14.9856 15.3065C15.0786 15.0299 15.23 14.7764 15.4295 14.5633C15.629 14.3502 15.8719 14.1823 16.1418 14.0712C16.4117 13.96 16.7023 13.9081 16.994 13.919C17.3363 13.921 17.6745 13.9927 17.9881 14.1297C18.3017 14.2667 18.584 14.4662 18.818 14.7159C19.0519 14.9657 19.2325 15.2605 19.3488 15.5824C19.465 15.9042 19.5144 16.2464 19.4941 16.588V23.74H23.9081V16.392H23.9071Z" fill="white"/>
</svg>
