<svg width="26" height="28" viewBox="0 0 26 28" fill="none" xmlns="http://www.w3.org/2000/svg">
<g filter="url(#filter0_d_106_429)">
<path d="M19.3862 8.47625H18.4775V5.75C18.4775 4.22501 17.8717 2.76247 16.7934 1.68414C15.715 0.605802 14.2525 0 12.7275 0C11.2025 0 9.73997 0.605802 8.66164 1.68414C7.5833 2.76247 6.9775 4.22501 6.9775 5.75V8.475H6.06625C5.82763 8.475 5.59135 8.52202 5.37091 8.61337C5.15047 8.70473 4.9502 8.83862 4.78153 9.00741C4.61285 9.1762 4.4791 9.37656 4.3879 9.59707C4.29669 9.81757 4.24984 10.0539 4.25 10.2925V17.5575C4.24984 17.7961 4.29669 18.0324 4.3879 18.2529C4.4791 18.4734 4.61285 18.6738 4.78153 18.8426C4.9502 19.0114 5.15047 19.1453 5.37091 19.2366C5.59135 19.328 5.82763 19.375 6.06625 19.375H19.3862C19.8679 19.375 20.3299 19.1836 20.6705 18.843C21.0111 18.5024 21.2025 18.0404 21.2025 17.5588V10.2925C21.2025 9.8108 21.0111 9.34883 20.6705 9.00822C20.3299 8.6676 19.8679 8.47625 19.3862 8.47625ZM15.4512 8.47625H10V5.75C9.99223 5.38732 10.057 5.02674 10.1904 4.6894C10.3238 4.35207 10.5232 4.04476 10.777 3.78552C11.0307 3.52627 11.3337 3.3203 11.6681 3.17969C12.0025 3.03907 12.3616 2.96664 12.7244 2.96664C13.0871 2.96664 13.4463 3.03907 13.7807 3.17969C14.1151 3.3203 14.418 3.52627 14.6718 3.78552C14.9255 4.04476 15.1249 4.35207 15.2584 4.6894C15.3918 5.02674 15.4565 5.38732 15.4487 5.75L15.4512 8.47625Z" fill="#BFBFBF"/>
</g>
<defs>
<filter id="filter0_d_106_429" x="-1" y="0" width="28" height="28" filterUnits="userSpaceOnUse" color-interpolation-filters="sRGB">
<feFlood flood-opacity="0" result="BackgroundImageFix"/>
<feColorMatrix in="SourceAlpha" type="matrix" values="0 0 0 0 0 0 0 0 0 0 0 0 0 0 0 0 0 0 127 0" result="hardAlpha"/>
<feOffset dy="4"/>
<feGaussianBlur stdDeviation="2"/>
<feComposite in2="hardAlpha" operator="out"/>
<feColorMatrix type="matrix" values="0 0 0 0 0 0 0 0 0 0 0 0 0 0 0 0 0 0 0.25 0"/>
<feBlend mode="normal" in2="BackgroundImageFix" result="effect1_dropShadow_106_429"/>
<feBlend mode="normal" in="SourceGraphic" in2="effect1_dropShadow_106_429" result="shape"/>
</filter>
</defs>
</svg>
