<svg width="16" height="16" viewBox="0 0 16 16" fill="none" xmlns="http://www.w3.org/2000/svg">
<path d="M14.2278 12.6697L11.7344 10.1777C11.6786 10.122 11.6123 10.0778 11.5393 10.0477C11.4664 10.0177 11.3883 10.0023 11.3094 10.0025H10.9019C11.7177 8.95946 12.1047 7.64472 11.9841 6.32633C11.8634 5.00794 11.2442 3.78519 10.2526 2.90739C9.26104 2.02958 7.97181 1.56283 6.64778 1.60229C5.32375 1.64175 4.06464 2.18446 3.12716 3.11976C2.18968 4.05506 1.64444 5.31252 1.6026 6.63575C1.56077 7.95897 2.02549 9.24833 2.90201 10.2409C3.77854 11.2335 5.00086 11.8546 6.31975 11.9775C7.63865 12.1004 8.95479 11.716 9.99984 10.9025V11.3097C9.99966 11.3885 10.015 11.4666 10.0451 11.5395C10.0752 11.6124 10.1194 11.6787 10.1751 11.7345L12.6693 14.2273C12.7249 14.2831 12.7909 14.3274 12.8636 14.3576C12.9364 14.3878 13.0144 14.4034 13.0931 14.4034C13.1719 14.4034 13.2499 14.3878 13.3226 14.3576C13.3954 14.3274 13.4614 14.2831 13.517 14.2273L14.2246 13.5201C14.3369 13.4071 14.4 13.2542 14.4 13.0949C14.4 12.9356 14.3369 12.7827 14.2246 12.6697H14.2278ZM6.79808 10.0017C6.16484 10.0017 5.54581 9.81401 5.01928 9.46239C4.49276 9.11076 4.08238 8.61099 3.84005 8.02627C3.59771 7.44155 3.53431 6.79813 3.65785 6.17739C3.78139 5.55665 4.08633 4.98647 4.5341 4.53894C4.98187 4.09141 5.55237 3.78664 6.17345 3.66317C6.79453 3.5397 7.4383 3.60307 8.02334 3.84527C8.60839 4.08747 9.10843 4.49762 9.46025 5.02386C9.81206 5.5501 9.99984 6.16878 9.99984 6.80168C9.99984 7.65038 9.66251 8.46431 9.06207 9.06442C8.46162 9.66454 7.64724 10.0017 6.79808 10.0017Z" fill="#8C8C8C"/>
</svg>
