<svg width="80" height="40" viewBox="0 0 80 40" fill="none" xmlns="http://www.w3.org/2000/svg">
<path d="M12.4388 30.0309C12.7884 29.8268 13.0776 29.5359 13.2776 29.1872C13.4777 28.8386 13.5816 28.4444 13.579 28.0439L13.4695 11.5991C13.4707 11.2894 13.5341 10.983 13.656 10.6975C13.7779 10.4121 13.9559 10.1532 14.1797 9.93592C14.4036 9.71861 14.6689 9.54712 14.9603 9.43134C15.2517 9.31557 15.5635 9.2578 15.8776 9.26136L71.446 9.00062C71.7654 8.99346 72.0831 9.04855 72.3808 9.16273C72.6786 9.27691 72.9505 9.44792 73.181 9.66596C73.4115 9.884 73.5961 10.1448 73.7241 10.4333C73.8521 10.7218 73.9211 11.0324 73.927 11.3473L74 29.3296C73.9976 29.6386 73.9334 29.944 73.8109 30.2284C73.6885 30.5128 73.5103 30.7706 73.2866 30.9869C73.0629 31.2033 72.798 31.374 72.5072 31.4892C72.2164 31.6044 71.9053 31.6619 71.5919 31.6583L19.0337 31.8831L9 32L12.4388 30.0309Z" fill="#E6EFF4"/>
<path d="M11.563 31.2479L11.5649 31.2468C11.9519 31.0208 12.2725 30.6985 12.4945 30.3117C12.7164 29.9248 12.8319 29.4872 12.829 29.0423L12.829 29.0422L12.7195 12.6C12.7195 12.5996 12.7195 12.5992 12.7196 12.5988C12.7208 12.323 12.7773 12.0501 12.8859 11.7957C12.9947 11.5409 13.1537 11.3096 13.3539 11.1153L13.1797 10.9359L13.3539 11.1153C13.5541 10.921 13.7915 10.7674 14.0526 10.6637C14.3137 10.56 14.5931 10.5082 14.8748 10.5113L14.8748 10.5114L14.8788 10.5114L70.4471 10.2507L70.4516 10.2506C70.7386 10.2441 71.0239 10.2936 71.2913 10.3962C71.5587 10.4987 71.8026 10.6521 72.0092 10.8476C72.2159 11.043 72.3811 11.2766 72.4956 11.5347C72.6099 11.7922 72.6715 12.0692 72.677 12.35C72.677 12.3507 72.6771 12.3513 72.6771 12.352L72.75 30.3277C72.75 30.3282 72.75 30.3288 72.75 30.3293C72.7477 30.6043 72.6904 30.8762 72.5813 31.1296C72.472 31.3834 72.3129 31.6138 72.1128 31.8072C71.9127 32.0007 71.6756 32.1536 71.4151 32.2568C71.1545 32.36 70.8757 32.4115 70.5948 32.4083V32.4083L70.5909 32.4083L18.0326 32.6331L18.0308 32.6331L8.95926 32.7388L11.563 31.2479Z" stroke="black" stroke-width="0.5"/>
<path d="M8.16531 15.8675C8.70521 17.0705 9.50604 18.1382 10.5097 18.9934C10.5997 19.0704 10.7082 19.1226 10.8245 19.1449C10.9409 19.1672 11.061 19.1589 11.1731 19.1206C11.296 19.0808 11.4058 19.0086 11.4911 18.9116L11.5638 18.848C11.6545 18.7041 11.6889 18.5318 11.6604 18.3641C11.6319 18.1964 11.5425 18.0451 11.4093 17.9393C10.6516 17.267 10.034 16.4518 9.59196 15.5403C9.17396 15.6312 8.68327 15.7403 8.21075 15.8766L8.16531 15.8675Z" fill="white" stroke="#040000" stroke-width="0.5" stroke-miterlimit="10"/>
<path d="M15.562 3.57288C13.2103 6.52304 10.3742 9.05191 7.17482 11.0514C6.54069 11.4212 5.87831 11.7402 5.19388 12.0055C4.28518 12.3145 3.31288 14.3136 4.28518 15.4676C4.70626 15.977 5.28467 16.3319 5.92946 16.4767C6.57426 16.6214 7.24888 16.5478 7.84725 16.2673C11.7668 14.4804 16.0729 13.7085 20.369 14.0228L15.562 3.57288Z" fill="white" stroke="#040000" stroke-width="0.5" stroke-miterlimit="10"/>
<path d="M20.722 14.044C22.3675 13.3103 22.6113 10.2706 21.2666 7.25459C19.9219 4.23857 17.4979 2.38836 15.8523 3.12202C14.2068 3.85569 13.963 6.89541 15.3077 9.91143C16.6524 12.9274 19.0765 14.7777 20.722 14.044Z" fill="#E6EFF4"/>
<path d="M5.49375 12.2509C5.2867 12.3503 5.07435 12.4382 4.85766 12.5144C3.94897 12.8233 2.96758 14.8225 3.94897 15.9765C4.37005 16.4858 4.94845 16.8408 5.59325 16.9855C6.23805 17.1303 6.91267 17.0566 7.51104 16.7761H7.58374C6.84121 16.2986 6.25023 15.6192 5.88006 14.8177C5.50989 14.0162 5.37588 13.1258 5.49375 12.2509Z" fill="#1D88A3"/>
<path d="M5.85723 11.742C5.63915 11.842 5.42106 11.9328 5.21206 12.0055C4.30337 12.3145 3.33107 14.3136 4.30337 15.4676C4.72445 15.977 5.30285 16.3319 5.94765 16.4767C6.59245 16.6214 7.26707 16.5478 7.86544 16.2673H7.93814C7.19728 15.7885 6.60812 15.1087 6.2396 14.3073C5.87108 13.5059 5.73845 12.6161 5.85723 11.742Z" stroke="#040000" stroke-width="0.5" stroke-miterlimit="10"/>
<path d="M20.444 14.7009C22.0895 13.9673 22.3334 10.9275 20.9887 7.91151C19.644 4.89549 17.2199 3.04528 15.5744 3.77894C13.9289 4.51261 13.685 7.55233 15.0297 10.5683C16.3744 13.5844 18.7985 15.4346 20.444 14.7009Z" fill="#1D88A3"/>
<path d="M18.0242 10.0938C18.541 9.83683 18.6936 9.09302 18.3651 8.43246C18.0367 7.77189 17.3514 7.44472 16.8347 7.7017C16.3179 7.95867 16.1653 8.70248 16.4938 9.36305C16.8222 10.0236 17.5074 10.3508 18.0242 10.0938Z" fill="#F5A427"/>
<path d="M20.722 14.044C22.3675 13.3103 22.6113 10.2706 21.2666 7.25459C19.9219 4.23857 17.4979 2.38836 15.8523 3.12202C14.2068 3.85569 13.963 6.89541 15.3077 9.91143C16.6524 12.9274 19.0765 14.7777 20.722 14.044Z" stroke="#040000" stroke-width="0.5" stroke-miterlimit="10"/>
<path d="M18.0246 10.1064C17.7255 10.2065 17.3993 10.1866 17.1145 10.0511C16.8298 9.91546 16.6088 9.67468 16.498 9.3794C16.3253 9.11251 16.2647 8.78832 16.3293 8.47707C16.3939 8.16581 16.5786 7.89255 16.8433 7.71649H16.9342L15.0714 8.06179C15.2596 9.31717 15.8018 10.4929 16.6343 11.4512L18.1336 10.0791L18.0246 10.1064Z" fill="#E6EFF4"/>
<path d="M18.3625 9.9909C18.8793 9.73393 19.0319 8.99012 18.7035 8.32955C18.375 7.66899 17.6898 7.34182 17.173 7.59879C16.6562 7.85577 16.5036 8.59958 16.8321 9.26014C17.1606 9.92071 17.8458 10.2479 18.3625 9.9909Z" stroke="#040000" stroke-width="0.5" stroke-miterlimit="10"/>
<path d="M22.2046 1.66461C22.5952 2.66057 22.5952 3.7673 22.2046 4.76325" stroke="#1D88A3" stroke-width="0.5" stroke-miterlimit="10"/>
<path d="M26.3755 6.55336C25.4482 6.04624 24.3612 5.91606 23.3405 6.18989" stroke="#1D88A3" stroke-width="0.5" stroke-miterlimit="10"/>
<path d="M24.7446 16.5423C24.8804 16.3622 25.0516 16.2364 25.258 16.1647C25.3617 16.1205 25.4643 16.0973 25.5658 16.0953C25.6674 16.0933 25.7636 16.1125 25.8546 16.1529C26.0293 16.2086 26.1417 16.3288 26.1916 16.5136C26.214 16.5723 26.2238 16.6312 26.2208 16.6904C26.2153 16.8003 26.1762 16.9066 26.1034 17.0094C25.5154 17.781 24.8717 18.482 24.1723 19.1123C24.0577 19.2075 23.9326 19.2564 23.7973 19.2591C23.7634 19.2597 23.7296 19.2604 23.6957 19.2611C23.5197 19.2308 23.3849 19.1363 23.2914 18.9777C23.2136 18.8442 23.1785 18.7013 23.1861 18.5492C23.1878 18.5153 23.1894 18.4815 23.1911 18.4477C23.2262 18.2528 23.3149 18.0864 23.457 17.9484C23.9444 17.4997 24.3736 17.0309 24.7446 16.5423ZM26.8188 19.6932C26.7173 19.6953 26.6303 19.659 26.558 19.5844C26.4856 19.5098 26.452 19.4218 26.457 19.3204C26.4575 19.312 26.4534 19.3078 26.445 19.308C26.2216 19.7177 25.986 20.1193 25.7381 20.5127C25.7017 20.5641 25.6818 20.6236 25.6784 20.6912L25.3468 27.3225C25.3371 27.517 25.257 27.6832 25.1063 27.8213C24.9642 27.9592 24.7958 28.0301 24.6012 28.034C24.415 28.0377 24.2534 27.9733 24.1163 27.8409C23.9877 27.7084 23.9282 27.5449 23.9379 27.3504L24.1681 22.7478C24.1689 22.7309 24.1609 22.7226 24.144 22.7229C24.1359 22.7147 24.1275 22.7148 24.1186 22.7234C24.0471 22.8009 23.9798 22.8782 23.9168 22.9554C23.8093 23.0758 23.6837 23.1374 23.5398 23.1402C23.5144 23.1407 23.485 23.1371 23.4516 23.1293C23.2752 23.1075 23.1486 23.0171 23.0721 22.8582C23.0484 22.8249 23.0289 22.7915 23.0137 22.758C22.9286 22.5992 22.8905 22.4311 22.8994 22.2536C22.9011 22.2198 22.9028 22.186 22.9045 22.1521C22.932 21.9405 23.0216 21.7529 23.1735 21.5895C23.817 20.8927 24.3837 20.1257 24.8736 19.2884C24.9845 19.1004 25.1433 18.9664 25.3502 18.8863C25.4539 18.842 25.5607 18.8188 25.6707 18.8166C25.7638 18.8148 25.852 18.8257 25.9353 18.8494L26.384 19.0052C26.409 19.0131 26.4302 19.0127 26.4475 19.0039C26.4653 18.9867 26.4748 18.9654 26.4761 18.94L26.5629 17.2029C26.5701 17.0592 26.627 16.9357 26.7336 16.8322C26.8402 16.7288 26.9612 16.6757 27.0966 16.673C27.2405 16.6702 27.3606 16.7185 27.4571 16.8179C27.5536 16.9173 27.5982 17.0389 27.591 17.1826L27.5295 18.4125C27.5262 18.4801 27.5583 18.5132 27.626 18.5119L28.0195 18.5041C28.0787 18.5029 28.11 18.4685 28.1134 18.4009L28.2123 16.4229C28.2203 16.2623 28.2819 16.1302 28.397 16.0266C28.5125 15.9145 28.6464 15.857 28.7987 15.854C28.951 15.851 29.0794 15.9033 29.1839 16.011C29.2889 16.1103 29.3373 16.2402 29.3293 16.4008L29.2304 18.3788C29.227 18.4464 29.2592 18.4796 29.3269 18.4782L29.733 18.4702C29.7923 18.469 29.8236 18.4346 29.8269 18.367L29.8872 17.1624C29.8948 17.0103 29.9519 16.8825 30.0585 16.779C30.174 16.667 30.3079 16.6094 30.4602 16.6064C30.6125 16.6034 30.7367 16.6558 30.8328 16.7637C30.9377 16.863 30.9864 16.9887 30.9788 17.1408L30.8925 18.8652C30.8824 19.0681 30.8016 19.247 30.6501 19.402C30.4991 19.5486 30.3178 19.624 30.1063 19.6281L26.8188 19.6932ZM33.3874 19.6898C33.3988 19.6305 33.3749 19.6014 33.3156 19.6026L32.4525 19.6197C32.3848 19.621 32.341 19.6515 32.3212 19.711C32.3102 19.7618 32.2907 19.8129 32.2628 19.8641C32.2425 19.9321 32.2351 19.9956 32.2406 20.0546C32.3197 21.0072 32.4571 21.8954 32.6526 22.7191C32.6522 22.7276 32.6604 22.7316 32.6774 22.7313C32.6943 22.731 32.7032 22.7223 32.704 22.7054C32.9836 21.847 33.2114 20.8418 33.3874 19.6898ZM35.1351 19.2246C35.1305 19.3175 35.0926 19.3985 35.0215 19.4675C34.9505 19.5364 34.8684 19.5719 34.7753 19.5737C34.7415 19.5744 34.7239 19.5874 34.7226 19.6127C34.3936 21.6291 33.9319 23.2554 33.3375 24.4916C33.3091 24.5513 33.3104 24.6104 33.3413 24.6689C33.6413 25.2625 34.0016 25.7494 34.4222 26.1295C34.5597 26.2534 34.6363 26.4124 34.6519 26.6063C34.6511 26.6232 34.65 26.6443 34.6488 26.6697C34.6407 26.8303 34.5783 26.9793 34.4616 27.1167C34.4523 27.1338 34.4387 27.151 34.4209 27.1682C34.286 27.3313 34.1204 27.4317 33.924 27.4694C33.8898 27.4785 33.8515 27.4835 33.8092 27.4843C33.6653 27.4872 33.5369 27.4348 33.4239 27.3273C33.0698 26.9712 32.7651 26.555 32.51 26.0787C32.4939 26.0621 32.4732 26.0541 32.4478 26.0546C32.4309 26.0549 32.4177 26.0636 32.4084 26.0807C31.9833 26.638 31.506 27.1372 30.9768 27.5784C30.8363 27.6825 30.6857 27.7362 30.5249 27.7394C30.4995 27.7399 30.4701 27.7362 30.4367 27.7284C30.2429 27.7154 30.0779 27.6342 29.9417 27.4849C29.8854 27.4269 29.8249 27.369 29.7601 27.3112C29.6878 27.2366 29.6586 27.1443 29.6725 27.0342C29.6865 26.9242 29.7415 26.8386 29.8375 26.7776C29.838 26.7692 29.8384 26.7607 29.8388 26.7523C29.8392 26.7438 29.835 26.7439 29.8261 26.7525C29.0421 26.8778 28.0451 27.0369 26.8351 27.2297C26.8008 27.2389 26.7667 27.2438 26.7329 27.2444C26.5975 27.2471 26.4727 27.2074 26.3585 27.1252C26.2108 27.0352 26.1202 26.9019 26.0868 26.7252C26.0805 26.6831 26.0786 26.6367 26.0811 26.586C26.0862 26.4846 26.1206 26.3868 26.1845 26.2926C26.2928 26.1553 26.4278 26.0767 26.5894 26.0566C26.7083 26.0458 26.8826 26.0254 27.1123 25.9956C27.3505 25.9655 27.5079 25.9455 27.5845 25.9355C27.6442 25.9259 27.6755 25.8915 27.6784 25.8323L27.7158 25.0843C27.7188 25.0251 27.6907 24.9961 27.6314 24.9973L26.4891 25.0199C26.3283 25.0231 26.1957 24.9708 26.0911 24.8631C25.9951 24.7552 25.9509 24.6252 25.9585 24.473C25.9665 24.3124 26.0238 24.1804 26.1305 24.077C26.246 23.9649 26.3841 23.9073 26.5449 23.9041L27.6872 23.8815C27.7465 23.8803 27.7778 23.8459 27.7811 23.7783L27.804 23.3218C27.8073 23.2542 27.775 23.2253 27.7069 23.2351C27.3587 23.2673 27.108 23.2934 26.9548 23.3133C26.9379 23.3136 26.921 23.314 26.904 23.3143C26.7771 23.3168 26.6608 23.2769 26.555 23.1945C26.4407 23.1124 26.3618 22.9999 26.3182 22.8572C26.2823 22.7313 26.3007 22.6169 26.3734 22.5141C26.4466 22.4029 26.5471 22.3376 26.6749 22.3182C27.7208 22.1961 28.6158 22.0475 29.36 21.8723C29.4366 21.8623 29.513 21.8566 29.5891 21.8551C29.6991 21.8529 29.8041 21.8677 29.9039 21.8995C30.0787 21.9552 30.2215 22.0579 30.3323 22.2077C30.3793 22.2828 30.4007 22.3626 30.3964 22.4471C30.3943 22.4894 30.3835 22.5361 30.3641 22.5871C30.315 22.7232 30.2177 22.8096 30.0722 22.8462C29.7984 22.9108 29.5082 22.9672 29.2014 23.0155C29.1333 23.0253 29.0978 23.0597 29.0948 23.1189L29.0631 23.7529C29.0597 23.8205 29.0919 23.8537 29.1596 23.8523L30.3146 23.8294C30.467 23.8264 30.5954 23.8788 30.6999 23.9865C30.8048 24.0857 30.8533 24.2157 30.8452 24.3763C30.8376 24.5284 30.7761 24.6605 30.6606 24.7726C30.5451 24.8847 30.4112 24.9422 30.2588 24.9452L29.1038 24.9681C29.0361 24.9694 29.0008 24.9997 28.9978 25.0589L28.9668 25.6802C28.9638 25.7393 28.9964 25.764 29.0645 25.7542L29.9067 25.6489C29.932 25.6484 29.9574 25.6479 29.9828 25.6474C30.1182 25.6447 30.2346 25.6846 30.3319 25.7671C30.4533 25.8745 30.5142 26.0084 30.5147 26.1689C30.5142 26.1773 30.5223 26.1856 30.5388 26.1937C30.5553 26.2018 30.568 26.2016 30.5769 26.193C31.0376 25.7701 31.4566 25.2509 31.834 24.6354C31.8704 24.584 31.8774 24.529 31.8549 24.4703C31.6442 23.782 31.4669 22.9326 31.323 21.9221C31.3234 21.9136 31.3152 21.9096 31.2982 21.9099C31.2902 21.9016 31.2857 21.906 31.2849 21.9229C31.2121 22.0256 31.1123 22.0783 30.9854 22.0808C30.8584 22.0833 30.7594 22.0346 30.6883 21.9347C30.6096 21.818 30.5149 21.6848 30.404 21.535C30.3727 21.4849 30.3232 21.4606 30.2555 21.4619L26.8284 21.5298C26.6592 21.5331 26.5141 21.4769 26.3931 21.361C26.2809 21.2366 26.2291 21.0898 26.2375 20.9208C26.246 20.7517 26.3124 20.6068 26.4368 20.4862C26.5701 20.3569 26.7213 20.2905 26.8906 20.2872L30.5588 20.2145C30.6265 20.2132 30.6745 20.1827 30.7028 20.123C31.1466 19.1938 31.5072 17.9833 31.7847 16.4915C31.8198 16.2966 31.9163 16.1427 32.0741 16.0298C32.2057 15.9343 32.3434 15.8851 32.4872 15.8823C32.5295 15.8814 32.5676 15.8807 32.6015 15.88C32.7944 15.91 32.9461 16.0041 33.0565 16.1623C33.1433 16.2873 33.183 16.4216 33.1759 16.5653C33.1737 16.6076 33.1676 16.6457 33.1575 16.6797C33.0559 17.1884 32.9331 17.7017 32.7888 18.2197C32.7774 18.279 32.8013 18.3081 32.8605 18.3069L34.536 18.2737C34.7137 18.2702 34.8628 18.3306 34.9834 18.4549C35.104 18.5792 35.1596 18.7343 35.1503 18.9203L35.1351 19.2246ZM48.604 18.5272C48.5938 18.73 48.5088 18.9091 48.3489 19.0642C48.1978 19.2108 48.0208 19.2861 47.8177 19.2901L43.9718 19.3663C43.9125 19.3674 43.8814 19.3976 43.8785 19.4568L43.805 21.1809C43.8041 21.1978 43.8117 21.2146 43.8278 21.2311C43.8443 21.2393 43.8614 21.2347 43.8792 21.2175C44.4546 20.8683 44.9716 20.5034 45.4302 20.1227C45.6066 19.9757 45.801 19.8916 46.0134 19.8705C46.0477 19.8614 46.086 19.8564 46.1283 19.8556C46.2975 19.8522 46.46 19.8997 46.6157 19.9979L46.862 20.145C47.0257 20.2516 47.1025 20.4063 47.0924 20.6092C47.0839 20.7782 47.0137 20.9147 46.8817 21.0187C45.9839 21.7289 44.9611 22.4036 43.8133 23.0428C43.7524 23.0778 43.7204 23.1249 43.7175 23.184L43.6021 25.745C43.5789 26.2099 43.5019 26.5661 43.3712 26.8136C43.2489 27.0609 43.0407 27.2508 42.7467 27.3833C42.3317 27.5689 41.6668 27.6792 40.752 27.7142C40.7436 27.7143 40.7351 27.7145 40.7266 27.7147C40.5151 27.7189 40.3321 27.6592 40.1777 27.5355C40.0063 27.4123 39.8878 27.2457 39.8222 27.0359C39.8007 26.9603 39.7746 26.8891 39.7442 26.8221C39.7222 26.755 39.7126 26.6918 39.7156 26.6327C39.7203 26.5397 39.7543 26.4504 39.8178 26.3646C39.9092 26.2277 40.0352 26.1577 40.196 26.1545C40.2045 26.1543 40.2087 26.1542 40.2087 26.1542C40.361 26.1512 40.8137 26.1423 41.5668 26.1273C41.7111 26.116 41.8097 26.0888 41.8626 26.0455C41.9159 25.9938 41.9457 25.9045 41.952 25.7777L42.0262 24.0409C42.0275 24.0155 42.0199 23.9988 42.0034 23.9907C41.9873 23.9741 41.9663 23.9703 41.9405 23.9792C40.7026 24.5611 39.3798 25.0644 37.9722 25.4892C37.8863 25.5162 37.8053 25.5305 37.7291 25.532C37.6022 25.5345 37.4808 25.5116 37.3648 25.4632C37.1749 25.3741 37.0295 25.2376 36.9288 25.0538C36.9064 24.9952 36.8795 24.9408 36.8482 24.8908C36.7936 24.7989 36.7687 24.7065 36.7733 24.6136C36.7767 24.5459 36.797 24.478 36.8342 24.4097C36.9019 24.2395 37.0259 24.1272 37.2061 24.073C38.8866 23.6006 40.4893 22.9946 42.0141 22.2551C42.0746 22.2285 42.1065 22.1815 42.1099 22.1138L42.2284 19.4894C42.2314 19.4303 42.199 19.4014 42.1313 19.4027L37.9173 19.4861C37.7057 19.4903 37.5316 19.422 37.395 19.2811C37.2587 19.1318 37.1957 18.9558 37.2058 18.7529L37.2071 18.7275C37.2172 18.5247 37.2978 18.3499 37.4489 18.2034C37.6003 18.0484 37.7818 17.9688 37.9934 17.9646L42.1947 17.8814C42.2624 17.8801 42.2979 17.8456 42.3013 17.778L42.3615 16.3201C42.3721 16.1088 42.4529 15.9298 42.6039 15.7833C42.7554 15.6283 42.9369 15.5487 43.1484 15.5445L43.3008 15.5415C43.5038 15.5374 43.6737 15.6059 43.8104 15.7467C43.9555 15.8874 44.0228 16.0634 44.0122 16.2747L43.9514 17.7453C43.948 17.8129 43.9759 17.8461 44.0352 17.845L47.8938 17.7686C48.0969 17.7645 48.2665 17.8372 48.4028 17.9865C48.5479 18.1272 48.6154 18.2989 48.6052 18.5018L48.604 18.5272ZM57.2751 21.7249C57.2717 21.7925 57.3039 21.8256 57.3716 21.8243L60.1132 21.77C60.1809 21.7687 60.2165 21.7342 60.2199 21.6666L60.3498 19.0673C60.3528 19.0081 60.3204 18.9792 60.2527 18.9805L57.5111 19.0348C57.4434 19.0362 57.4081 19.0664 57.4051 19.1256L57.2751 21.7249ZM52.7184 21.8151C52.715 21.8827 52.7472 21.9159 52.8149 21.9145L55.5438 21.8605C55.6031 21.8593 55.6344 21.8249 55.6378 21.7573L55.7677 19.158C55.7707 19.0988 55.7425 19.0698 55.6833 19.071L52.9543 19.125C52.8867 19.1264 52.8513 19.1566 52.8484 19.2158L52.7184 21.8151ZM57.4907 17.4139C57.4873 17.4815 57.5195 17.5146 57.5872 17.5133L61.3061 17.4396C61.5092 17.4356 61.6791 17.504 61.8158 17.6449C61.9609 17.7856 62.0282 17.9616 62.0176 18.1729L61.7685 23.1559C61.7583 23.3588 61.6733 23.5378 61.5134 23.693C61.3623 23.8395 61.1853 23.9148 60.9822 23.9188L60.6776 23.9249C60.5168 23.9281 60.3841 23.8758 60.2796 23.7681C60.1755 23.6519 60.1275 23.5135 60.1355 23.3529C60.1377 23.3107 60.1133 23.29 60.0626 23.291L57.2955 23.3458C57.2278 23.3472 57.1925 23.3774 57.1895 23.4366L57.0291 26.6445C57.0186 26.8558 56.9378 27.0348 56.7867 27.1813C56.6357 27.3279 56.4544 27.4032 56.2429 27.4074L56.1032 27.4102C55.9002 27.4142 55.7261 27.3459 55.5809 27.2052C55.4443 27.0643 55.3812 26.8883 55.3918 26.6769L55.5522 23.469C55.5551 23.4099 55.527 23.3809 55.4678 23.382L52.7134 23.4366C52.6626 23.4376 52.636 23.4634 52.6335 23.5142C52.6246 23.6917 52.5535 23.8451 52.4202 23.9744C52.2959 24.0951 52.1448 24.1572 51.9671 24.1607L51.7894 24.1642C51.5863 24.1682 51.4122 24.0999 51.2671 23.9592C51.1308 23.8099 51.0678 23.6338 51.0779 23.431L51.3303 18.3845C51.3408 18.1732 51.4216 17.9943 51.5727 17.8477C51.7322 17.701 51.9135 17.6256 52.1165 17.6216L55.7594 17.5495C55.8186 17.5483 55.8499 17.5139 55.8533 17.4463L55.923 16.0515C55.9336 15.8402 56.0144 15.6613 56.1654 15.5147C56.3249 15.368 56.5062 15.2926 56.7093 15.2886L56.8489 15.2858C57.0605 15.2817 57.2346 15.35 57.3713 15.4908C57.5079 15.6317 57.571 15.8078 57.5604 16.0191L57.4907 17.4139ZM66.5681 22.6302C66.4353 22.7511 66.28 22.8132 66.1023 22.8168C65.9331 22.8201 65.7879 22.7639 65.6669 22.6481C65.5459 22.5322 65.4814 22.3857 65.4733 22.2085L65.4534 18.0415L65.468 16.9899C65.4697 16.7872 65.5418 16.6126 65.6844 16.4663C65.8358 16.3112 66.0173 16.2317 66.2289 16.2275L66.6477 16.2192C66.8508 16.2151 67.0205 16.2878 67.1567 16.4371C67.2934 16.5779 67.3524 16.7499 67.3338 16.9529L67.2431 18.0061L66.7934 22.1824C66.776 22.3601 66.701 22.5094 66.5681 22.6302ZM66.798 25.8937C66.5577 26.1349 66.2683 26.2589 65.9299 26.2656C65.5998 26.2721 65.3265 26.1593 65.1099 25.9271C64.8932 25.695 64.7938 25.4014 64.8115 25.0464C64.8293 24.6913 64.9583 24.3932 65.1986 24.152C65.4389 23.9108 65.7241 23.7869 66.0541 23.7804C66.3926 23.7737 66.6699 23.8907 66.8861 24.1313C67.1112 24.3633 67.2149 24.6568 67.1972 25.0118C67.1798 25.3584 67.0468 25.6523 66.798 25.8937Z" fill="black" fill-opacity="0.1"/>
<path d="M23.8359 16.5423C23.9717 16.3622 24.1429 16.2364 24.3493 16.1647C24.453 16.1205 24.5556 16.0973 24.6571 16.0953C24.7587 16.0933 24.8549 16.1125 24.9459 16.1529C25.1207 16.2086 25.233 16.3288 25.2829 16.5136C25.3054 16.5723 25.3151 16.6312 25.3121 16.6904C25.3066 16.8003 25.2675 16.9066 25.1947 17.0094C24.6067 17.781 23.963 18.482 23.2636 19.1123C23.149 19.2075 23.024 19.2564 22.8886 19.2591C22.8547 19.2597 22.8209 19.2604 22.787 19.2611C22.611 19.2308 22.4763 19.1363 22.3827 18.9777C22.3049 18.8442 22.2698 18.7013 22.2774 18.5492C22.2791 18.5153 22.2808 18.4815 22.2824 18.4477C22.3175 18.2528 22.4062 18.0864 22.5483 17.9484C23.0357 17.4997 23.4649 17.0309 23.8359 16.5423ZM25.9101 19.6932C25.8086 19.6953 25.7216 19.659 25.6493 19.5844C25.5769 19.5098 25.5433 19.4218 25.5484 19.3204C25.5488 19.312 25.5448 19.3078 25.5363 19.308C25.3129 19.7177 25.0773 20.1193 24.8294 20.5127C24.793 20.5641 24.7731 20.6236 24.7697 20.6912L24.4382 27.3225C24.4284 27.517 24.3483 27.6832 24.1977 27.8213C24.0555 27.9592 23.8871 28.0301 23.6925 28.034C23.5063 28.0377 23.3447 27.9733 23.2076 27.8409C23.079 27.7084 23.0195 27.5449 23.0292 27.3504L23.2594 22.7478C23.2602 22.7309 23.2522 22.7226 23.2353 22.7229C23.2272 22.7147 23.2188 22.7148 23.2099 22.7234C23.1384 22.8009 23.0711 22.8782 23.0081 22.9554C22.9006 23.0758 22.775 23.1374 22.6311 23.1402C22.6057 23.1407 22.5763 23.1371 22.5429 23.1293C22.3665 23.1075 22.2399 23.0171 22.1634 22.8582C22.1397 22.8249 22.1202 22.7915 22.105 22.758C22.0199 22.5992 21.9818 22.4311 21.9907 22.2536C21.9924 22.2198 21.9941 22.186 21.9958 22.1521C22.0233 21.9405 22.113 21.7529 22.2648 21.5895C22.9083 20.8927 23.475 20.1257 23.9649 19.2884C24.0758 19.1004 24.2346 18.9664 24.4415 18.8863C24.5452 18.842 24.652 18.8188 24.762 18.8166C24.8551 18.8148 24.9433 18.8257 25.0267 18.8494L25.4754 19.0052C25.5003 19.0131 25.5215 19.0127 25.5388 19.0039C25.5566 18.9867 25.5661 18.9654 25.5674 18.94L25.6542 17.2029C25.6614 17.0592 25.7183 16.9357 25.8249 16.8322C25.9315 16.7288 26.0525 16.6757 26.1879 16.673C26.3318 16.6702 26.4519 16.7185 26.5484 16.8179C26.6449 16.9173 26.6895 17.0389 26.6823 17.1826L26.6209 18.4125C26.6175 18.4801 26.6496 18.5132 26.7173 18.5119L27.1108 18.5041C27.17 18.5029 27.2013 18.4685 27.2047 18.4009L27.3036 16.4229C27.3117 16.2623 27.3732 16.1302 27.4883 16.0266C27.6038 15.9145 27.7377 15.857 27.89 15.854C28.0423 15.851 28.1707 15.9033 28.2752 16.011C28.3802 16.1103 28.4286 16.2402 28.4206 16.4008L28.3217 18.3788C28.3183 18.4464 28.3505 18.4796 28.4182 18.4782L28.8243 18.4702C28.8836 18.469 28.9149 18.4346 28.9183 18.367L28.9785 17.1624C28.9861 17.0103 29.0432 16.8825 29.1498 16.779C29.2653 16.667 29.3992 16.6094 29.5515 16.6064C29.7038 16.6034 29.828 16.6558 29.9241 16.7637C30.029 16.863 30.0777 16.9887 30.0701 17.1408L29.9838 18.8652C29.9737 19.0681 29.8929 19.247 29.7414 19.402C29.5904 19.5486 29.4091 19.624 29.1976 19.6281L25.9101 19.6932ZM32.4787 19.6898C32.4901 19.6305 32.4662 19.6014 32.4069 19.6026L31.5438 19.6197C31.4761 19.621 31.4323 19.6515 31.4125 19.711C31.4015 19.7618 31.382 19.8129 31.3541 19.8641C31.3338 19.9321 31.3264 19.9956 31.3319 20.0546C31.4111 21.0072 31.5484 21.8954 31.7439 22.7191C31.7435 22.7276 31.7517 22.7316 31.7687 22.7313C31.7856 22.731 31.7945 22.7223 31.7953 22.7054C32.0749 21.847 32.3027 20.8418 32.4787 19.6898ZM34.2264 19.2246C34.2218 19.3175 34.1839 19.3985 34.1129 19.4675C34.0418 19.5364 33.9597 19.5719 33.8666 19.5737C33.8328 19.5744 33.8152 19.5874 33.8139 19.6127C33.4849 21.6291 33.0232 23.2554 32.4288 24.4916C32.4004 24.5513 32.4017 24.6104 32.4326 24.6689C32.7326 25.2625 33.0929 25.7494 33.5135 26.1295C33.651 26.2534 33.7276 26.4124 33.7432 26.6063C33.7424 26.6232 33.7413 26.6443 33.7401 26.6697C33.732 26.8303 33.6696 26.9793 33.5529 27.1167C33.5436 27.1338 33.53 27.151 33.5123 27.1682C33.3773 27.3313 33.2117 27.4317 33.0153 27.4694C32.9811 27.4785 32.9428 27.4835 32.9005 27.4843C32.7566 27.4872 32.6282 27.4348 32.5152 27.3273C32.1611 26.9712 31.8564 26.555 31.6013 26.0787C31.5852 26.0621 31.5645 26.0541 31.5391 26.0546C31.5222 26.0549 31.5091 26.0636 31.4997 26.0807C31.0746 26.638 30.5973 27.1372 30.0681 27.5784C29.9276 27.6825 29.777 27.7362 29.6162 27.7394C29.5908 27.7399 29.5614 27.7362 29.528 27.7284C29.3342 27.7154 29.1692 27.6342 29.033 27.4849C28.9767 27.4269 28.9162 27.369 28.8515 27.3112C28.7791 27.2366 28.7499 27.1443 28.7639 27.0342C28.7778 26.9242 28.8328 26.8386 28.9289 26.7776C28.9293 26.7692 28.9297 26.7607 28.9301 26.7523C28.9305 26.7438 28.9263 26.7439 28.9174 26.7525C28.1334 26.8778 27.1364 27.0369 25.9264 27.2297C25.8921 27.2389 25.8581 27.2438 25.8242 27.2444C25.6888 27.2471 25.564 27.2074 25.4498 27.1252C25.3021 27.0352 25.2115 26.9019 25.1781 26.7252C25.1718 26.6831 25.1699 26.6367 25.1724 26.586C25.1775 26.4846 25.2119 26.3868 25.2758 26.2926C25.3841 26.1553 25.5191 26.0767 25.6807 26.0566C25.7996 26.0458 25.9739 26.0254 26.2037 25.9956C26.4419 25.9655 26.5992 25.9455 26.6758 25.9355C26.7355 25.9259 26.7668 25.8915 26.7697 25.8323L26.8072 25.0843C26.8101 25.0251 26.782 24.9961 26.7227 24.9973L25.5804 25.0199C25.4196 25.0231 25.287 24.9708 25.1825 24.8631C25.0864 24.7552 25.0422 24.6252 25.0498 24.473C25.0578 24.3124 25.1152 24.1804 25.2218 24.077C25.3373 23.9649 25.4754 23.9073 25.6362 23.9041L26.7785 23.8815C26.8378 23.8803 26.8691 23.8459 26.8725 23.7783L26.8953 23.3218C26.8987 23.2542 26.8663 23.2253 26.7982 23.2351C26.45 23.2673 26.1993 23.2934 26.0461 23.3133C26.0292 23.3136 26.0123 23.314 25.9954 23.3143C25.8684 23.3168 25.7521 23.2769 25.6463 23.1945C25.5321 23.1124 25.4531 22.9999 25.4096 22.8572C25.3736 22.7313 25.392 22.6169 25.4648 22.5141C25.5379 22.4029 25.6384 22.3376 25.7662 22.3182C26.8121 22.1961 27.7071 22.0475 28.4513 21.8723C28.5279 21.8623 28.6043 21.8566 28.6804 21.8551C28.7905 21.8529 28.8954 21.8677 28.9952 21.8995C29.17 21.9552 29.3128 22.0579 29.4236 22.2077C29.4706 22.2828 29.492 22.3626 29.4877 22.4471C29.4856 22.4894 29.4748 22.5361 29.4554 22.5871C29.4063 22.7232 29.309 22.8096 29.1635 22.8462C28.8897 22.9108 28.5995 22.9672 28.2927 23.0155C28.2246 23.0253 28.1891 23.0597 28.1861 23.1189L28.1544 23.7529C28.151 23.8205 28.1832 23.8537 28.2509 23.8523L29.4059 23.8294C29.5583 23.8264 29.6867 23.8788 29.7912 23.9865C29.8961 24.0857 29.9446 24.2157 29.9365 24.3763C29.9289 24.5284 29.8674 24.6605 29.7519 24.7726C29.6364 24.8847 29.5025 24.9422 29.3502 24.9452L28.1951 24.9681C28.1274 24.9694 28.0921 24.9997 28.0891 25.0589L28.0581 25.6802C28.0551 25.7393 28.0877 25.764 28.1558 25.7542L28.998 25.6489C29.0234 25.6484 29.0487 25.6479 29.0741 25.6474C29.2095 25.6447 29.3259 25.6846 29.4232 25.7671C29.5446 25.8745 29.6055 26.0084 29.606 26.1689C29.6056 26.1773 29.6136 26.1856 29.6301 26.1937C29.6466 26.2018 29.6593 26.2016 29.6682 26.193C30.1289 25.7701 30.548 25.2509 30.9253 24.6354C30.9617 24.584 30.9687 24.529 30.9463 24.4703C30.7355 23.782 30.5582 22.9326 30.4143 21.9221C30.4147 21.9136 30.4065 21.9096 30.3895 21.9099C30.3815 21.9016 30.3771 21.906 30.3762 21.9229C30.3034 22.0256 30.2036 22.0783 30.0767 22.0808C29.9497 22.0833 29.8507 22.0346 29.7796 21.9347C29.7009 21.818 29.6062 21.6848 29.4953 21.535C29.464 21.4849 29.4145 21.4606 29.3468 21.4619L25.9197 21.5298C25.7505 21.5331 25.6054 21.4769 25.4844 21.361C25.3722 21.2366 25.3204 21.0898 25.3289 20.9208C25.3373 20.7517 25.4037 20.6068 25.5281 20.4862C25.6614 20.3569 25.8126 20.2905 25.9819 20.2872L29.6501 20.2145C29.7178 20.2132 29.7658 20.1827 29.7942 20.123C30.2379 19.1938 30.5986 17.9833 30.876 16.4915C30.9111 16.2966 31.0076 16.1427 31.1654 16.0298C31.297 15.9343 31.4347 15.8851 31.5785 15.8823C31.6209 15.8814 31.6589 15.8807 31.6928 15.88C31.8857 15.91 32.0374 16.0041 32.1478 16.1623C32.2346 16.2873 32.2743 16.4216 32.2672 16.5653C32.265 16.6076 32.2589 16.6457 32.2488 16.6797C32.1472 17.1884 32.0244 17.7017 31.8801 18.2197C31.8687 18.279 31.8926 18.3081 31.9518 18.3069L33.6273 18.2737C33.805 18.2702 33.9541 18.3306 34.0747 18.4549C34.1953 18.5792 34.251 18.7343 34.2417 18.9203L34.2264 19.2246ZM47.6953 18.5272C47.6851 18.73 47.6001 18.9091 47.4402 19.0642C47.2891 19.2108 47.1121 19.2861 46.909 19.2901L43.0631 19.3663C43.0038 19.3674 42.9727 19.3976 42.9698 19.4568L42.8963 21.1809C42.8954 21.1978 42.903 21.2146 42.9191 21.2311C42.9356 21.2393 42.9527 21.2347 42.9705 21.2175C43.5459 20.8683 44.0629 20.5034 44.5215 20.1227C44.6979 19.9757 44.8924 19.8916 45.1047 19.8705C45.139 19.8614 45.1773 19.8564 45.2196 19.8556C45.3889 19.8522 45.5513 19.8997 45.707 19.9979L45.9533 20.145C46.117 20.2516 46.1938 20.4063 46.1837 20.6092C46.1752 20.7782 46.105 20.9147 45.973 21.0187C45.0752 21.7289 44.0524 22.4036 42.9046 23.0428C42.8437 23.0778 42.8117 23.1249 42.8088 23.184L42.6934 25.745C42.6702 26.2099 42.5932 26.5661 42.4625 26.8136C42.3402 27.0609 42.132 27.2508 41.838 27.3833C41.423 27.5689 40.7581 27.6792 39.8433 27.7142C39.8349 27.7143 39.8264 27.7145 39.818 27.7147C39.6064 27.7189 39.4234 27.6592 39.269 27.5355C39.0976 27.4123 38.9791 27.2457 38.9136 27.0359C38.892 26.9603 38.866 26.8891 38.8355 26.8221C38.8135 26.755 38.804 26.6918 38.8069 26.6327C38.8116 26.5397 38.8456 26.4504 38.9091 26.3646C39.0005 26.2277 39.1265 26.1577 39.2873 26.1545C39.2958 26.1543 39.3 26.1542 39.3 26.1542C39.4523 26.1512 39.905 26.1423 40.6581 26.1273C40.8024 26.116 40.901 26.0888 40.9539 26.0455C41.0072 25.9938 41.037 25.9045 41.0433 25.7777L41.1175 24.0409C41.1188 24.0155 41.1112 23.9988 41.0947 23.9907C41.0786 23.9741 41.0576 23.9703 41.0318 23.9792C39.7939 24.5611 38.4711 25.0644 37.0635 25.4892C36.9776 25.5162 36.8966 25.5305 36.8204 25.532C36.6935 25.5345 36.5721 25.5116 36.4561 25.4632C36.2662 25.3741 36.1208 25.2376 36.0201 25.0538C35.9977 24.9952 35.9708 24.9408 35.9395 24.8908C35.8849 24.7989 35.86 24.7065 35.8646 24.6136C35.868 24.5459 35.8883 24.478 35.9255 24.4097C35.9932 24.2395 36.1172 24.1272 36.2974 24.073C37.9779 23.6006 39.5806 22.9946 41.1054 22.2551C41.1659 22.2285 41.1978 22.1815 41.2012 22.1138L41.3197 19.4894C41.3227 19.4303 41.2903 19.4014 41.2226 19.4027L37.0086 19.4861C36.7971 19.4903 36.6229 19.422 36.4863 19.2811C36.35 19.1318 36.287 18.9558 36.2971 18.7529L36.2984 18.7275C36.3085 18.5247 36.3891 18.3499 36.5402 18.2034C36.6916 18.0484 36.8731 17.9688 37.0847 17.9646L41.286 17.8814C41.3537 17.8801 41.3892 17.8456 41.3926 17.778L41.4528 16.3201C41.4634 16.1088 41.5442 15.9298 41.6952 15.7833C41.8467 15.6283 42.0282 15.5487 42.2397 15.5445L42.3921 15.5415C42.5951 15.5374 42.765 15.6059 42.9017 15.7467C43.0468 15.8874 43.1141 16.0634 43.1035 16.2747L43.0427 17.7453C43.0393 17.8129 43.0672 17.8461 43.1265 17.845L46.9851 17.7686C47.1882 17.7645 47.3578 17.8372 47.4941 17.9865C47.6392 18.1272 47.7067 18.2989 47.6966 18.5018L47.6953 18.5272Z" fill="#178FAC"/>
<path d="M56.3664 21.7249C56.3631 21.7925 56.3952 21.8256 56.4629 21.8243L59.2046 21.77C59.2723 21.7687 59.3078 21.7342 59.3112 21.6666L59.4411 19.0673C59.4441 19.0081 59.4117 18.9792 59.344 18.9805L56.6024 19.0348C56.5347 19.0362 56.4994 19.0664 56.4964 19.1256L56.3664 21.7249ZM51.8097 21.8151C51.8063 21.8827 51.8385 21.9159 51.9062 21.9145L54.6351 21.8605C54.6944 21.8593 54.7257 21.8249 54.7291 21.7573L54.859 19.158C54.862 19.0988 54.8338 19.0698 54.7746 19.071L52.0457 19.125C51.978 19.1264 51.9426 19.1566 51.9397 19.2158L51.8097 21.8151ZM56.582 17.4139C56.5786 17.4815 56.6108 17.5146 56.6785 17.5133L60.3975 17.4396C60.6005 17.4356 60.7704 17.504 60.9071 17.6449C61.0522 17.7856 61.1195 17.9616 61.1089 18.1729L60.8598 23.1559C60.8496 23.3588 60.7646 23.5378 60.6047 23.693C60.4536 23.8395 60.2766 23.9148 60.0735 23.9188L59.7689 23.9249C59.6081 23.9281 59.4754 23.8758 59.3709 23.7681C59.2669 23.6519 59.2188 23.5135 59.2269 23.3529C59.229 23.3107 59.2046 23.29 59.1539 23.291L56.3868 23.3458C56.3191 23.3472 56.2838 23.3774 56.2809 23.4366L56.1205 26.6445C56.1099 26.8558 56.0291 27.0348 55.8781 27.1813C55.727 27.3279 55.5457 27.4032 55.3342 27.4074L55.1946 27.4102C54.9915 27.4142 54.8174 27.3459 54.6722 27.2052C54.5356 27.0643 54.4725 26.8883 54.4831 26.6769L54.6435 23.469C54.6464 23.4099 54.6183 23.3809 54.5591 23.382L51.8047 23.4366C51.754 23.4376 51.7273 23.4634 51.7248 23.5142C51.7159 23.6917 51.6448 23.8451 51.5115 23.9744C51.3872 24.0951 51.2361 24.1572 51.0584 24.1607L50.8807 24.1642C50.6776 24.1682 50.5035 24.0999 50.3584 23.9592C50.2222 23.8099 50.1591 23.6338 50.1692 23.431L50.4216 18.3845C50.4321 18.1732 50.5129 17.9943 50.664 17.8477C50.8235 17.701 51.0048 17.6256 51.2079 17.6216L54.8507 17.5495C54.9099 17.5483 54.9412 17.5139 54.9446 17.4463L55.0144 16.0515C55.0249 15.8402 55.1057 15.6613 55.2568 15.5147C55.4163 15.368 55.5975 15.2926 55.8006 15.2886L55.9403 15.2858C56.1518 15.2817 56.3259 15.35 56.4626 15.4908C56.5992 15.6317 56.6623 15.8078 56.6517 16.0191L56.582 17.4139ZM65.6594 22.6302C65.5266 22.7511 65.3713 22.8132 65.1936 22.8168C65.0244 22.8201 64.8792 22.7639 64.7582 22.6481C64.6372 22.5322 64.5727 22.3857 64.5646 22.2085L64.5447 18.0415L64.5593 16.9899C64.561 16.7872 64.6331 16.6126 64.7757 16.4663C64.9271 16.3112 65.1086 16.2317 65.3202 16.2275L65.739 16.2192C65.9421 16.2151 66.1118 16.2878 66.248 16.4371C66.3847 16.5779 66.4437 16.7499 66.4251 16.9529L66.3344 18.0061L65.8847 22.1824C65.8674 22.3601 65.7923 22.5094 65.6594 22.6302ZM65.8893 25.8937C65.649 26.1349 65.3596 26.2589 65.0212 26.2656C64.6911 26.2721 64.4178 26.1593 64.2012 25.9271C63.9845 25.695 63.8851 25.4014 63.9029 25.0464C63.9206 24.6913 64.0496 24.3932 64.2899 24.152C64.5302 23.9108 64.8154 23.7869 65.1454 23.7804C65.4839 23.7737 65.7612 23.8907 65.9775 24.1313C66.2026 24.3633 66.3062 24.6568 66.2885 25.0118C66.2711 25.3584 66.1381 25.6523 65.8893 25.8937Z" fill="black"/>
</svg>
